<?xml version="1.0" encoding="utf-8"?>
<!-- Svg Vector Icons : http://www.onlinewebfonts.com/icon -->
<!DOCTYPE svg PUBLIC "-//W3C//DTD SVG 1.1//EN" "http://www.w3.org/Graphics/SVG/1.1/DTD/svg11.dtd">
<svg version="1.1" xmlns="http://www.w3.org/2000/svg" xmlns:xlink="http://www.w3.org/1999/xlink" x="0px" y="0px" viewBox="0 0 1000 1000" enable-background="new 0 0 1000 1000" xml:space="preserve">
<metadata> Svg Vector Icons : http://www.onlinewebfonts.com/icon </metadata>
<g><path d="M570,423h282.5v48.9H570V423L570,423z"/><path d="M656,782.3l-2.5-2.4H98.4c-22.1,0-39.3-17.1-39.3-39.1V227.5c0-22,17.2-41.5,39.3-41.5h790.9c22.1,0,39.3,17.1,39.3,39.1V533l2.5,2.4c12.3,7.3,24.6,17.1,34.4,29.3l9.8,12.2V215.3c0-41.5-34.4-75.8-76.1-75.8h-813c-41.7,0-76.1,34.2-76.1,75.8v537.6c0,41.5,34.4,75.8,76.1,75.8h601.8l-7.4-9.8C670.7,806.7,663.3,794.5,656,782.3L656,782.3z"/><path d="M570,530.5h83.5v48.9H570V530.5L570,530.5z"/><path d="M570,317.9h282.5v48.9H570V317.9L570,317.9z"/><path d="M827.9,537.9c-90.9,0-162.1,70.9-162.1,161.3c0,88,73.7,161.3,162.1,161.3c90.9,0,162.1-70.9,162.1-161.3C990,608.7,916.3,537.9,827.9,537.9L827.9,537.9z M825.4,796.9c-7.4,7.3-22.1,7.3-31.9,0l-68.8-68.4c-7.4-7.3-7.4-22,0-29.3c7.4-7.3,22.1-7.3,31.9,0l54,53.8l105.6-102.6c7.4-7.3,22.1-7.3,31.9,0c7.4,7.3,7.4,22,0,29.3L825.4,796.9L825.4,796.9z"/><path d="M322.8,566.5c-68.3,0-123.8-56-123.8-124.9c0-68.9,55.5-124.9,123.8-124.9c68.3,0,123.8,56.1,123.8,124.9C446.6,510.4,391.1,566.5,322.8,566.5L322.8,566.5z M322.8,357.7c-45.5,0-82.5,37.6-82.5,83.8s37,83.8,82.5,83.8c45.5,0,82.5-37.6,82.5-83.8S368.3,357.7,322.8,357.7L322.8,357.7z"/><path d="M487.9,625.5c-7,0-13.8-3.5-17.7-9.9l-67.6-111.5c-5.9-9.7-2.7-22.3,7-28.2c9.7-5.9,22.5-2.8,28.4,7l67.6,111.5c5.9,9.7,2.7,22.4-7,28.2C495.3,624.6,491.6,625.5,487.9,625.5L487.9,625.5z"/><path d="M487.9,625.5c-1.7,0-3.4-0.2-5.1-0.6l-67.6-17.2c-11.1-2.8-17.7-14-14.9-25c2.8-11,14.1-17.7,25.1-14.8L493,585c11,2.8,17.7,14,14.9,25C505.6,619.4,497.1,625.5,487.9,625.5L487.9,625.5z"/><path d="M402.3,665.7c-2.1,0-4.1-0.3-6.2-0.9c-10.9-3.4-17-14.9-13.6-25.8l18-57.4c3.4-10.8,14.9-16.8,25.9-13.5c10.9,3.4,17,14.9,13.6,25.8l-18,57.4C419.3,660,411.1,665.7,402.3,665.7L402.3,665.7z"/><path d="M402.3,665.7c-7.2,0-14.1-3.7-18-10.4l-55.1-96c-5.6-9.9-2.2-22.4,7.7-28c9.9-5.7,22.5-2.2,28.2,7.6l55,96c5.7,9.9,2.2,22.4-7.7,28C409.3,664.8,405.8,665.7,402.3,665.7L402.3,665.7z"/><path d="M157.6,625.5c-3.6,0-7.3-0.9-10.7-3c-9.8-5.9-12.9-18.5-7-28.2l67.6-111.5c5.9-9.7,18.6-12.9,28.4-7c9.8,5.9,12.9,18.5,7,28.2l-67.6,111.5C171.5,622,164.6,625.5,157.6,625.5L157.6,625.5z"/><path d="M157.7,625.5c-9.2,0-17.6-6.2-20-15.5c-2.8-11,3.8-22.2,14.9-25l67.6-17.2c11.1-2.8,22.3,3.9,25.1,14.8c2.8,11-3.8,22.2-14.9,25l-67.6,17.2C161.1,625.3,159.3,625.5,157.7,625.5L157.7,625.5z"/><path d="M243.3,665.7c-8.8,0-17-5.6-19.7-14.4l-18-57.4c-3.4-10.8,2.7-22.4,13.6-25.8c10.9-3.3,22.5,2.7,25.9,13.5l18,57.4c3.4,10.8-2.7,22.4-13.6,25.8C247.4,665.4,245.3,665.7,243.3,665.7L243.3,665.7z"/><path d="M243.2,665.7c-3.5,0-7-0.9-10.2-2.7c-9.9-5.6-13.3-18.2-7.7-28l55.1-95.9c5.7-9.8,18.3-13.3,28.2-7.7c9.9,5.6,13.3,18.2,7.7,28l-55.1,95.9C257.4,662,250.4,665.7,243.2,665.7L243.2,665.7z"/></g>
</svg>